# xmcd
#
# Track frame offsets:
#	150
#	18681
#	35050
#	53874
#	67607
#	90999
#	102828
#	125855
#	140183
#	158910
#	179483
#	195511
#	207725
#	223519
#	236718
#	256647
#	269573
#	285188
#	297862
#	311465
#
# Disc length: 4338 seconds
#
# Revision: 1
# Processed by: cddbd v1.5.2PL0 Copyright (c) Steve Scherf et al.
# Submitted via: audiograbber 1.83.01
#
DISCID=2f10f014
DTITLE=Walker,Jr.&the All Stars - Walk in the night-The Motown 70s Studio Album
DTITLE=s [CD 2)
DYEAR=2019
DGENRE=Soul
TTITLE0=Way back home (vocal) from "Moody Jr."
TTITLE1=I don't want to do wrong from "Moody Jr."
TTITLE2=Bristol's way from "Moody Jr."
TTITLE3=Don't blame the children from "Moody Jr."
TTITLE4=Me and my family from "Moody Jr."
TTITLE5=Groove thang from "Moody Jr."
TTITLE6=Still water medley from "Moody Jr."
TTITLE7=Never can say goodbye from "Moody Jr."
TTITLE8=Walk in the night from "Moody Jr."
TTITLE9=Moody Junior from "Moody Jr."
TTITLE10=I ain't going nowhere from "Peace&understanding is hard to find"
TTITLE11=I don't need no reason from "Peace&understanding is hard to find"
TTITLE12=It's alright,do what you gotta do from "Peace&understanding is hard to
TTITLE12=find"
TTITLE13=It's too late from "Peace&understanding is hard to find"
TTITLE14=Soul clappin' from "Peace&understanding is hard to find"
TTITLE15=I can see clearly now from "Peace&understanding is hard to find"
TTITLE16=Gimme that beat (Part 1) from "Peace&understanding is hard to find"
TTITLE17=Gimme that beat (Part 2) from "Peace&understanding is hard to find"
TTITLE18=Country boy from "Peace&understanding is hard to find"
TTITLE19=Peace&understanding is hard to find from "Peace&understanding is hard 
TTITLE19=to find"
EXTD=
EXTT0=
EXTT1=
EXTT2=
EXTT3=
EXTT4=
EXTT5=
EXTT6=
EXTT7=
EXTT8=
EXTT9=
EXTT10=
EXTT11=
EXTT12=
EXTT13=
EXTT14=
EXTT15=
EXTT16=
EXTT17=
EXTT18=
EXTT19=
PLAYORDER=
